<?xml version="1.0" encoding="utf-8"?>
<!-- Generator: Adobe Illustrator 26.0.1, SVG Export Plug-In . SVG Version: 6.00 Build 0)  -->
<svg version="1.1" id="Layer_1" xmlns="http://www.w3.org/2000/svg" xmlns:xlink="http://www.w3.org/1999/xlink" x="0px" y="0px"
	 viewBox="0 0 142 54" style="enable-background:new 0 0 142 54;" xml:space="preserve">
<style type="text/css">
	.st0{fill:url(#SVGID_1_);}
	.st1{fill:url(#SVGID_00000017489353321118521290000017369415324545659320_);}
</style>
<g>
	<linearGradient id="SVGID_1_" gradientUnits="userSpaceOnUse" x1="39.4349" y1="7.8602" x2="63.2814" y2="7.8602">
		<stop  offset="0" style="stop-color:#FFFFFF"/>
		<stop  offset="0.9904" style="stop-color:#FFFFFF;stop-opacity:0.29"/>
	</linearGradient>
	<path class="st0" d="M46,6.5C46.7,6.1,47.3,6,47.9,6c2.3,0,4.5,0.8,6.8,2.4c2.2,1.6,4.1,3.8,5.8,6.7h2.8c-2.6-4.5-5.7-8-9.2-10.5
		c-3.6-2.6-7.2-3.9-10.9-3.9c-0.8,0-1.5,0.1-2.1,0.4c-0.7,0.3-1.2,0.6-1.6,1.1l4.4,5.6C44.5,7.2,45.3,6.8,46,6.5z"/>
	
		<linearGradient id="SVGID_00000142177192236661419370000003714315329895053997_" gradientUnits="userSpaceOnUse" x1="36.2979" y1="34.2167" x2="105.7021" y2="34.2167">
		<stop  offset="0" style="stop-color:#FFFFFF"/>
		<stop  offset="0.9904" style="stop-color:#FFFFFF;stop-opacity:0.29"/>
	</linearGradient>
	<path style="fill:url(#SVGID_00000142177192236661419370000003714315329895053997_);" d="M100.4,15.1c-0.8,0-1.5,0.2-2.3,0.5
		c-0.7,0.3-1.3,0.8-1.8,1.4c-0.7-0.6-1.4-1.1-2.1-1.4c-0.7-0.3-1.4-0.5-1.9-0.5h-22h-0.9h-3.6c-0.7,0-1.4,0.2-2,0.5
		c-0.7,0.3-1.3,0.8-1.8,1.4c-0.7-0.6-1.4-1.1-2.1-1.4c-0.7-0.3-1.4-0.5-1.9-0.5H36.3v5h20c0.9,0,1.6,0.3,2.2,0.8
		c0.6,0.5,0.9,1,0.9,1.8c0,0.7-0.3,1.3-0.9,1.8c-0.6,0.5-1.3,0.8-2.2,0.8h-8.8c-2.4,0-4.5,0.6-6.2,1.8c-1.7,1.3-2.6,2.7-2.6,4.5
		c0,3.8,2.4,7.3,7.3,10.6c4.9,3.3,9.6,4.6,14,3.8c1.3,2,2.7,3.6,4.1,4.9c1.4,1.3,2.7,2.1,4.1,2.6c0.5,0,0.9-0.2,1.4-0.7
		c0.5-0.5,0.8-1.1,1.1-1.8c-2.7-1-5.2-2.8-7.5-5.6c1.3-0.2,2.3-0.8,3.1-1.8c0.8-1,1.3-2.2,1.3-3.5c0-0.6-0.2-1.2-0.7-1.8
		c-0.5-0.6-1.1-1-1.8-1.4l-1.1-0.5c-1.5-0.7-2.5-1.1-2.9-1.1c-1.3,0-2.4,0.5-3.2,1.5c-0.8,1-1.1,2.2-0.9,3.5
		c-0.9,0.4-3.2,0.6-6.9,0.6c-1.7,0-3.2-0.5-4.5-1.4c-1.2-1-1.8-2.2-1.8-3.6c0-1.5,1.3-2.9,3.9-4c2.6-1.1,5.6-1.6,9.3-1.6
		c2.4,0,4.5-0.6,6.2-1.8c1.7-1.3,2.6-2.7,2.6-4.5c0-0.8-0.1-1.6-0.3-2.3c-0.2-0.6-0.4-1.1-0.7-1.5h4.5h0.9h23.9v8.5
		c-0.8-1.4-1.7-2.6-2.5-3.5c-0.9-0.9-1.7-1.5-2.5-1.8c-1.1-0.4-3-0.6-5.6-0.6c-3.3,0-6.1,0.6-8.4,1.8c-2.3,1.3-3.5,2.7-3.5,4.5
		c0,1,0.3,2.1,0.9,3.4c0.7,1.3,1.6,2.7,2.8,4.1c1.3,1.6,2.8,2.8,4.4,3.7c1.6,0.9,3.2,1.3,4.7,1.3c1.6,0,3.2-0.4,4.9-1.1
		c1.6-0.7,3.2-1.7,4.8-3v2.8c0,0.5-0.2,0.9-0.6,1.3c-0.4,0.4-0.8,0.6-1.3,0.6c-0.3,0-0.6,0.1-0.9,0.2c-0.3,0.1-0.4,0.3-0.4,0.4
		c0,0.3,0.1,0.5,0.4,0.9c0.3,0.3,0.6,0.6,1.1,1l4.1,3.8c1.1-0.4,2-1,2.8-1.6c0.7-0.7,1-1.4,1-2.1v-22c0-0.7,0.3-1.3,0.8-1.8
		c0.5-0.5,1-0.8,1.8-0.8h2.8v-5H100.4z M88.3,34.5c-3,1.7-6,2.5-9,2.5c-0.8,0-1.5-0.3-2-0.9c-0.5-0.6-0.8-1.3-0.8-2.2
		c0-1.5,1.4-2.9,4.2-4.4c2.8-1.5,5.6-2.2,8.3-2.2c1,0,1.9,0.2,2.6,0.6c0.8,0.5,1.1,1,1.1,1.6C92.8,31.2,91.3,32.9,88.3,34.5z"/>
</g>
</svg>
