<?xml version="1.0" encoding="utf-8"?>
<!-- Generator: Adobe Illustrator 26.0.1, SVG Export Plug-In . SVG Version: 6.00 Build 0)  -->
<svg version="1.1" id="Layer_1" xmlns="http://www.w3.org/2000/svg" xmlns:xlink="http://www.w3.org/1999/xlink" x="0px" y="0px"
	 viewBox="0 0 146 37" style="enable-background:new 0 0 146 37;" xml:space="preserve">
<style type="text/css">
	.st0{opacity:0.4;enable-background:new    ;}
	.st1{fill:url(#SVGID_1_);}
	.st2{fill:url(#SVGID_00000140728186553507466700000018116647783009105315_);}
	.st3{fill:url(#SVGID_00000027592070726179851990000004858221678106220222_);}
</style>
<g class="st0">
	
		<linearGradient id="SVGID_1_" gradientUnits="userSpaceOnUse" x1="40.3404" y1="19.5" x2="68.3984" y2="19.5" gradientTransform="matrix(1 0 0 -1 0 38)">
		<stop  offset="0" style="stop-color:#FFFFFF"/>
		<stop  offset="1" style="stop-color:#FFFFFF;stop-opacity:0.24"/>
	</linearGradient>
	<path class="st1" d="M57.4,6.9c-1.7-1.9-3.2-4.1-4.6-6.5L45,1.7c5.4,5.4,9.9,8.8,13.2,10H40.3V14h16.9v2.7H55
		c-3.8,0-6.9,0.7-9.2,2.2c-2.3,1.5-3.5,3.4-3.5,5.9c0,2.1,0.9,3.9,2.7,5.4c1.7,1.5,3.9,2.3,6.4,2.3c0.9,0,1.8-0.1,2.6-0.3
		c0.8-0.2,1.5-0.6,1.9-1c0.2,1.1,0.5,2,1.1,3c0.5,0.9,1.3,1.7,2.1,2.4h7.2c-0.7-0.9-1.3-1.8-1.7-2.8c-0.4-1-0.6-2-0.6-3.1
		c0-1.2,0.4-3,1.4-5.4l-9.5,0.2c-0.2,1-0.6,1.8-1.3,2.4c-0.7,0.6-1.5,1-2.3,1c-1,0-1.8-0.2-2.5-0.7c-0.6-0.5-0.9-1.2-0.9-2
		c0-1.3,0.7-2.2,2.2-3s3.3-1.1,5.8-1.1c3.5,0,6.1,0.3,7.7,0.9l0.4-9.1h3.4v-2.3h-5.6C60.8,10.3,59,8.7,57.4,6.9z"/>
	
		<linearGradient id="SVGID_00000163795613584511131640000014903115791323987357_" gradientUnits="userSpaceOnUse" x1="90.927" y1="14.9626" x2="105.6586" y2="14.9626" gradientTransform="matrix(1 0 0 -1 0 38)">
		<stop  offset="0" style="stop-color:#FFFFFF"/>
		<stop  offset="1" style="stop-color:#FFFFFF;stop-opacity:0.24"/>
	</linearGradient>
	<polygon style="fill:url(#SVGID_00000163795613584511131640000014903115791323987357_);" points="90.9,11.7 90.9,14 93.6,14 
		94.1,34.4 101.3,34.4 101.8,14 105.7,14 105.7,11.7 	"/>
	
		<linearGradient id="SVGID_00000054978999452161784220000016142476057745167253_" gradientUnits="userSpaceOnUse" x1="68.4869" y1="14.1861" x2="90.4702" y2="14.1861" gradientTransform="matrix(1 0 0 -1 0 38)">
		<stop  offset="0" style="stop-color:#FFFFFF"/>
		<stop  offset="1" style="stop-color:#FFFFFF;stop-opacity:0.24"/>
	</linearGradient>
	<path style="fill:url(#SVGID_00000054978999452161784220000016142476057745167253_);" d="M81.6,11.5c-2.8,0-4.9,0.6-6.6,1.9
		c-1.6,1.3-2.5,3-2.5,5.1c0,1.9,0.9,3.5,2.6,4.8c1.7,1.3,3.8,2,6.3,2c-0.4,0.6-1,1.1-1.8,1.6c-0.8,0.4-1.7,0.7-2.7,0.9l-4.1-2
		l-4.3,3.6c2.2,0.2,4.4,0.9,6.6,2c2.2,1.2,4.3,2.8,6.3,4.8l6.4-1.8l-6.4-4.5c2.7-0.7,4.9-2,6.6-3.7s2.5-3.7,2.5-5.8
		c0-2.7-0.8-4.8-2.4-6.4C86.4,12.3,84.3,11.5,81.6,11.5z M82.6,21.8c-0.3,0-0.5,0.1-0.7,0.1c-1.4,0-2.6-0.3-3.5-0.9
		s-1.5-1.3-1.5-2.1c0-0.8,0.2-1.4,0.8-1.9c0.5-0.5,1.2-0.8,1.9-0.8c1,0,1.8,0.5,2.6,1.6c0.7,1.1,1.1,2.3,1.1,3.8
		C83.1,21.7,82.9,21.7,82.6,21.8z"/>
</g>
</svg>
