<?xml version="1.0" encoding="utf-8"?>
<!-- Generator: Adobe Illustrator 26.0.1, SVG Export Plug-In . SVG Version: 6.00 Build 0)  -->
<svg version="1.1" id="Layer_1" xmlns="http://www.w3.org/2000/svg" xmlns:xlink="http://www.w3.org/1999/xlink" x="0px" y="0px"
	 viewBox="0 0 162 50" style="enable-background:new 0 0 162 50;" xml:space="preserve">
<style type="text/css">
	.st0{opacity:0.45;fill:url(#SVGID_1_);enable-background:new    ;}
</style>
<g>
	
		<linearGradient id="SVGID_1_" gradientUnits="userSpaceOnUse" x1="46.4967" y1="27" x2="115.3718" y2="27" gradientTransform="matrix(1 0 0 -1 0 52)">
		<stop  offset="0" style="stop-color:#FFFFFF"/>
		<stop  offset="1" style="stop-color:#FFFFFF;stop-opacity:0.22"/>
	</linearGradient>
	<path class="st0" d="M105.8,13.5c-0.4-1.1-0.7-2.2-0.7-3.3c0-1.2,0.4-2.2,1.1-3.2c0.8-0.9,1.7-1.3,2.8-1.3c0.7,0,1.3,0.1,2,0.3
		c0.7,0.3,1.4,0.5,2.1,0.9l2.4-3.7c-1.1-0.7-2.2-1.1-3.3-1.4c-1.1-0.3-2.1-0.5-3.2-0.5c-2.5,0-4.6,0.9-6.3,2.6
		c-1.7,1.7-2.6,3.8-2.6,6.3c0,1.1,0.3,2.1,0.7,3.3c0.4,1.1,1.1,2.1,1.8,3.2H79.9h-1.3H65v5.1h4.5v11.8c-1.3,2.2-3,4.1-5.3,5.4
		c-2.1,1.3-4.5,2-6.8,2c-1.6,0-2.9-0.4-4.1-1.2s-1.7-1.8-1.7-2.9c0-0.9,0.4-1.8,1.3-2.6c0.8-0.8,2-1.3,3.2-1.4h4.5v-5.1h-4.5
		c-1.2,0-2.1-0.5-2.9-1.4c-0.8-0.9-1.2-2.1-1.2-3.4c0-0.5,0.1-1.1,0.4-1.6c0.3-0.5,0.5-0.8,0.9-1.1c0.4,0.8,0.9,1.3,2,1.8
		c0.9,0.4,2,0.7,3.2,0.7c1.4,0,2.6-0.4,3.6-1.3c1.1-0.9,1.4-2,1.4-3.3c0-1.6-0.7-2.9-2-4.1c-1.3-1.2-2.9-1.7-4.7-1.7
		c-2.6,0-4.9,0.9-6.7,2.9c-1.8,2-2.8,4.2-2.8,7c0,1.8,0.4,3.4,1.3,4.7c0.9,1.4,2,2.4,3.4,2.9c-1.6,0.4-2.9,1.3-3.9,2.6
		c-1.1,1.3-1.4,2.8-1.4,4.5c0,2.5,1.1,4.7,3.2,6.6c2.1,1.8,4.7,2.8,7.6,2.8c2.5,0,4.7-0.4,6.8-1.2c2.1-0.8,3.8-1.8,5.3-3.3v7h5.1
		v-27h4.1H80h6.2v10.8c-1.4,0-2.8,0.5-3.8,1.4c-1.1,1.1-1.6,2.2-1.6,3.6c0,1.3,0.5,2.5,1.6,3.4c1.1,0.9,2.4,1.4,3.8,1.4
		s2.6-0.5,3.6-1.4c1.1-0.9,1.4-2.1,1.4-3.4h11.4v10.8h5.1V21.8h5.4v-5.1h-5.4C107,15.7,106.3,14.7,105.8,13.5z M56,16.4
		c0.4-0.3,0.9-0.4,1.4-0.4c0.5,0,0.9,0.1,1.3,0.5c0.4,0.3,0.5,0.7,0.5,1.1s-0.1,0.8-0.5,1.1c-0.4,0.3-0.8,0.5-1.3,0.5
		s-0.9-0.1-1.3-0.5c-0.4-0.4-0.7-0.8-0.9-1.4C55.2,16.9,55.6,16.7,56,16.4z M102.6,32.6H91.2V21.8h11.4V32.6z"/>
</g>
</svg>
