<?xml version="1.0" encoding="utf-8"?>
<!-- Generator: Adobe Illustrator 26.0.1, SVG Export Plug-In . SVG Version: 6.00 Build 0)  -->
<svg version="1.1" id="Layer_1" xmlns="http://www.w3.org/2000/svg" xmlns:xlink="http://www.w3.org/1999/xlink" x="0px" y="0px"
	 viewBox="0 0 140 76" style="enable-background:new 0 0 140 76;" xml:space="preserve">
<style type="text/css">
	.st0{fill:url(#SVGID_1_);}
	.st1{fill:url(#SVGID_00000078739053236697303060000015909361919706617992_);}
</style>
<g>
	
		<linearGradient id="SVGID_1_" gradientUnits="userSpaceOnUse" x1="26.5674" y1="60.4953" x2="35.7851" y2="60.4953" gradientTransform="matrix(1 0 0 -1 0 78)">
		<stop  offset="0" style="stop-color:#FFFFFF"/>
		<stop  offset="1" style="stop-color:#FFFFFF;stop-opacity:0.24"/>
	</linearGradient>
	<polygon class="st0" points="35.8,17.5 31.2,12.9 26.6,17.5 31.2,22.1 	"/>
	
		<linearGradient id="SVGID_00000127755372341010928230000005937582342820444318_" gradientUnits="userSpaceOnUse" x1="0" y1="32.1486" x2="140" y2="32.1486" gradientTransform="matrix(1 0 0 -1 0 78)">
		<stop  offset="0" style="stop-color:#FFFFFF"/>
		<stop  offset="1" style="stop-color:#FFFFFF;stop-opacity:0.24"/>
	</linearGradient>
	<path style="fill:url(#SVGID_00000127755372341010928230000005937582342820444318_);" d="M132.7,48.1c0.9-1.2,1.3-2.5,1.3-4V33.9h6
		l-3-5.3h-19.3h-1.3h-14.8h-1.3H59.9h-1.3H37.1h-1H0l3,5.3H11v7.5c0,0.4-0.1,0.8-0.3,1.1c-0.2,0.3-0.4,0.5-0.7,0.5
		c-1.1-0.6-1.9-1-2.3-1c-0.7,0-1.3,0.2-1.8,0.7c-0.5,0.5-0.7,1-0.7,1.6c0,1.2,0.5,2.7,1.4,4.3c0.9,1.7,2.3,3.6,4.2,5.6l7.7,8.6
		l2.3-1.9l-9.1-9.2c1.3-0.5,2.3-1.2,3.3-2c0.8-0.9,1.3-1.8,1.4-2.9c0.9,1,1.7,1.8,2.5,2.4c0.8,0.6,1.5,0.8,2,0.8
		c1.4,0,2.8-0.2,4.1-0.6c1.2-0.4,2.3-0.9,3.2-1.7V55v2.7l5.9,4V55V33.9h4.9h1H47v7.5c0,0.5-0.1,1-0.2,1.4c-0.1,0.4-0.3,0.6-0.5,0.6
		c-0.6-0.3-1.1-0.5-1.6-0.7c-0.5-0.2-1.1-0.3-1.6-0.3c-0.5,0-1,0.2-1.4,0.6c-0.4,0.4-0.6,0.8-0.6,1.4c0,0.9,0.3,1.9,1,3.2
		c0.7,1.2,1.6,2.7,3,4.1l9.6,10.9l2.7-1.6L48,51.9c1.1-0.3,2.1-0.9,3-1.9c0.8-1,1.4-2.2,1.6-3.7c1.1,1.3,2.2,2.4,3.4,3.2
		c1.1,0.7,2,1.1,2.9,1.1c0.9,0,1.7-0.1,2.5-0.3s1.5-0.5,2.1-1v-5.6c-0.5,0.6-1.3,1.1-2.2,1.4c-1,0.3-2.1,0.5-3.4,0.5
		c-0.7,0-1.4-0.1-2.3-0.3c-0.8-0.2-1.7-0.5-2.7-1V34h8.6h1.3h18.5v9.6c-1.5-1.9-3.2-3.4-4.6-4.4c-1.5-1-2.9-1.5-4-1.5
		c-2.3,0-4.4,0.7-6,2.2c-1.6,1.4-2.5,3.3-2.5,5.4c0,2.3,1.1,4.7,3.5,7c2.2,2.3,4.6,3.6,6.7,3.6c0.9,0,2-0.3,3.3-0.8
		c1.2-0.6,2.4-1.4,3.7-2.4v2.7v3l5.9,3.7v-6.6v-6.2c1-1.2,2.2-2.2,3.5-3c1.2-0.7,2.5-1,3.8-1c0.6,0,1.1,0.2,1.6,0.7
		c0.5,0.5,0.7,1.1,0.7,1.8c0,1.3-1.3,4.3-4,8.9l5.3,3.7c1-1.5,1.8-3.2,2.4-4.8c0.6-1.7,0.8-3.4,0.8-5c0-2.2-0.9-4.5-2.8-6.8
		c-1.8-2.2-3.7-3.5-5.5-3.5c-1,0-2,0.1-3.1,0.4c-1,0.3-1.9,0.7-2.9,1.2v-7.9h16.2h1.3h4.2V55v2.7l5.9,4V55V33.9h4.6h1.3h7.2v6.6
		c0,0.4-0.1,0.8-0.2,1.2c-0.1,0.4-0.3,0.9-0.5,1.4c-0.4-0.4-0.9-0.8-1.5-1c-0.6-0.2-1.3-0.3-2-0.3c-0.6,0-1.1,0.2-1.6,0.6
		c-0.5,0.4-0.7,0.8-0.7,1.4c0,1.3,1.2,3.5,3.7,6.6l9.9,12.5l3.3-1.9l-9.2-9.9C130.5,50.3,131.7,49.4,132.7,48.1z M28.2,41.2
		c-1.3,1.3-2.7,2.4-3.8,3.2c-1.1,0.7-2,1.1-2.9,1.1c-1.1,0-2-0.1-2.9-0.3C18,45,17.4,44.8,17,44.5V33.9h11.2V41.2z M77.7,49.1
		c-0.5,0.5-1.2,0.9-2,1.2c-0.8,0.3-1.8,0.4-2.9,0.4c-0.8,0-1.5-0.3-2.1-0.8c-0.6-0.6-0.8-1.2-0.8-2.1c0-1.3,0.5-2.5,1.4-3.5
		c0.9-0.9,2.1-1.4,3.5-1.4c1.1,0,2.3,0.3,3.6,0.8c1.2,0.6,2.3,1.4,3.4,2.4L77.7,49.1z"/>
</g>
</svg>
