<?xml version="1.0" encoding="utf-8"?>
<!-- Generator: Adobe Illustrator 26.0.1, SVG Export Plug-In . SVG Version: 6.00 Build 0)  -->
<svg version="1.1" id="Layer_1" xmlns="http://www.w3.org/2000/svg" xmlns:xlink="http://www.w3.org/1999/xlink" x="0px" y="0px"
	 viewBox="0 0 75 83" style="enable-background:new 0 0 75 83;" xml:space="preserve">
<style type="text/css">
	.st0{fill:#FFFFFF;}
</style>
<g>
	<path class="st0" d="M62.7,51.2v9.5c0,1.7-0.7,3.2-1.9,4.4c-1.1,1-2.6,1.6-4.2,1.6c-0.2,0-0.3,0-0.5,0C32.8,64.9,14,46,12.3,22.9
		c-0.1-1.7,0.5-3.4,1.6-4.6c1.1-1.2,2.7-1.9,4.3-1.9l9.3-0.1c2.8,0,5.2,1.9,5.8,4.5l1.9,7.7c0.6,2.3-0.3,4.8-2.2,6.2l-2.6,2
		c2.8,4.7,6.9,8.8,11.6,11.7l2.1-2.7c1.4-1.9,3.9-2.8,6.2-2.2l7.8,1.9C60.8,46.1,62.7,48.5,62.7,51.2z"/>
	<path id="Shape" class="st0" d="M58.1,45.4l-7.8-1.9c-2.3-0.6-4.8,0.3-6.2,2.2l-2.1,2.7c-4.8-2.9-8.8-6.9-11.6-11.7l2.6-2
		c1.9-1.4,2.8-3.9,2.2-6.2l-1.9-7.7c-0.7-2.7-3.1-4.5-5.8-4.5l-9.3,0.1c-1.7,0-3.2,0.7-4.3,1.9c-1.1,1.2-1.7,2.9-1.6,4.6
		C14,46,32.8,64.9,56.1,66.7c0.2,0,0.3,0,0.5,0c1.6,0,3-0.6,4.2-1.6c1.2-1.1,1.9-2.7,1.9-4.4v-9.5C62.7,48.5,60.8,46.1,58.1,45.4z
		 M56.6,60.6c-20.3-1.6-36.8-18-38.3-38.2l9.2-0.1l2,7.6l-4.7,3.5c-1.2,0.9-1.6,2.5-0.9,3.8c3.8,7.6,10.1,13.9,17.7,17.8
		c1.3,0.6,2.9,0.3,3.8-0.9l3.6-4.8l7.7,1.9L56.6,60.6z"/>
</g>
</svg>
